<?xml version="1.0" standalone="no"?>
<!DOCTYPE svg PUBLIC "-//W3C//DTD SVG 20010904//EN"
 "http://www.w3.org/TR/2001/REC-SVG-20010904/DTD/svg10.dtd">
<svg version="1.0" xmlns="http://www.w3.org/2000/svg"
 width="453.000000pt" height="453.000000pt" viewBox="0 0 453.000000 453.000000"
 preserveAspectRatio="xMidYMid meet">

<g transform="translate(0.000000,453.000000) scale(0.100000,-0.100000)"
fill="#000000" stroke="none">
<path d="M1685 4514 c-355 -63 -671 -293 -837 -610 -37 -70 -108 -266 -108
-298 0 -8 -10 -18 -22 -20 -177 -36 -289 -84 -406 -173 -136 -104 -249 -277
-292 -447 -28 -109 -28 -293 0 -402 59 -233 219 -432 435 -539 174 -86 163
-85 958 -85 l699 0 34 34 c29 29 34 41 34 83 0 28 -7 58 -16 71 -37 53 -21 52
-732 52 -618 0 -663 1 -734 19 -154 40 -274 122 -357 246 -116 175 -131 382
-39 571 39 82 142 194 220 242 193 116 424 115 617 -2 81 -50 139 -50 187 -2
28 28 34 42 34 75 0 23 -6 54 -14 70 -25 48 -152 120 -276 157 -70 21 -75 24
-73 48 2 34 62 171 105 243 41 69 152 190 228 248 366 282 881 246 1211 -84
86 -85 155 -187 199 -290 30 -70 60 -171 60 -202 0 -9 -26 -32 -60 -53 -86
-53 -111 -116 -75 -186 37 -71 116 -81 209 -24 96 58 196 86 301 87 279 0 510
-178 579 -447 29 -111 101 -149 194 -103 78 38 66 174 -30 359 -100 194 -288
345 -508 409 -56 16 -113 23 -223 26 l-147 5 -6 27 c-3 14 -19 67 -36 116
-137 408 -485 705 -912 780 -108 18 -293 18 -401 -1z"/>
<path d="M2368 2557 c-42 -34 -77 -65 -77 -69 -1 -4 12 -22 27 -39 l28 -32 36
32 c20 17 38 31 42 31 3 0 6 -79 6 -175 l0 -175 55 0 55 0 0 245 0 245 -47 -1
c-43 0 -56 -6 -125 -62z"/>
<path d="M2739 2597 c-59 -39 -74 -84 -74 -222 0 -109 2 -125 25 -169 34 -65
76 -88 153 -83 68 4 103 26 132 83 17 33 20 59 20 164 0 111 -3 130 -23 168
-31 58 -73 82 -143 82 -42 0 -65 -6 -90 -23z m127 -88 c23 -26 33 -187 14
-243 -23 -70 -79 -69 -101 3 -17 56 -8 200 14 234 21 32 47 35 73 6z"/>
<path d="M3541 2554 l-81 -65 26 -35 c15 -18 29 -34 33 -34 3 1 22 14 41 31
l35 30 3 -176 2 -175 55 0 55 0 0 245 0 245 -44 0 c-39 0 -53 -7 -125 -66z"/>
<path d="M3912 2600 c-57 -35 -77 -95 -76 -230 0 -129 12 -170 64 -214 39 -32
68 -40 127 -33 85 9 126 60 143 175 12 85 -1 200 -28 246 -43 74 -156 101
-230 56z m122 -85 c22 -22 29 -71 25 -174 -3 -76 -7 -94 -25 -112 -15 -15 -28
-19 -43 -14 -36 11 -46 43 -46 155 0 85 4 111 18 133 20 30 48 35 71 12z"/>
<path d="M3533 1890 c-40 -13 -79 -59 -95 -113 -6 -23 -11 -85 -11 -138 0 -81
4 -104 26 -152 32 -69 68 -91 150 -91 72 1 102 21 137 90 22 43 25 61 25 159
0 126 -20 186 -73 224 -36 25 -112 35 -159 21z m104 -117 c14 -21 18 -48 18
-128 0 -80 -4 -107 -18 -128 -19 -30 -57 -36 -76 -13 -31 37 -31 245 -1 281
20 24 58 18 77 -12z"/>
<path d="M2375 1834 c-38 -30 -74 -59 -79 -64 -9 -9 32 -70 49 -70 6 0 27 14
48 31 l37 30 0 -180 0 -181 55 0 55 0 0 245 0 245 -47 0 c-43 0 -55 -6 -118
-56z"/>
<path d="M2750 1828 c-41 -33 -75 -63 -75 -67 0 -12 43 -61 54 -61 5 0 26 14
46 31 l35 31 0 -181 0 -181 55 0 55 0 0 245 0 245 -47 -1 c-43 0 -56 -6 -123
-61z"/>
<path d="M3136 1829 c-42 -33 -76 -64 -76 -69 0 -12 41 -60 52 -60 5 0 24 12
42 26 l31 27 3 -177 2 -176 55 0 55 0 0 245 0 245 -44 0 c-38 0 -53 -7 -120
-61z"/>
<path d="M2341 1237 c-48 -24 -66 -62 -70 -148 -4 -90 15 -158 52 -184 12 -9
43 -15 73 -15 42 0 56 5 77 26 49 49 59 189 20 273 -25 52 -99 76 -152 48z
m73 -73 c24 -24 23 -175 -2 -197 -16 -15 -21 -15 -38 -3 -16 12 -19 27 -19 99
0 104 21 140 59 101z"/>
<path d="M2883 1236 c-57 -26 -84 -122 -64 -232 15 -80 51 -114 120 -114 87 0
121 50 121 175 0 77 -14 126 -44 154 -30 28 -91 36 -133 17z m85 -87 c8 -15
12 -51 10 -97 -3 -59 -7 -77 -23 -88 -16 -12 -21 -12 -37 3 -25 22 -26 173 -2
198 20 20 35 15 52 -16z"/>
<path d="M3780 1223 c-36 -34 -54 -110 -44 -193 12 -103 47 -140 130 -140 42
0 56 5 77 26 48 48 60 200 22 274 -22 42 -53 60 -107 60 -38 0 -54 -6 -78 -27z
m110 -62 c5 -11 10 -52 10 -91 0 -79 -11 -110 -40 -110 -29 0 -40 31 -40 110
0 79 11 110 40 110 11 0 24 -9 30 -19z"/>
<path d="M4078 1203 c-56 -44 -57 -46 -41 -69 18 -28 26 -29 58 -8 l25 16 0
-126 0 -126 45 0 45 0 0 180 0 180 -37 0 c-30 -1 -51 -11 -95 -47z"/>
<path d="M2603 1197 c-28 -23 -52 -44 -52 -47 0 -3 8 -16 19 -28 l20 -24 30
22 30 21 0 -125 0 -126 40 0 40 0 0 175 0 175 -37 -1 c-29 0 -50 -10 -90 -42z"/>
<path d="M3153 1198 c-58 -45 -63 -56 -33 -83 20 -18 21 -18 45 5 l25 23 0
-126 0 -127 45 0 45 0 0 175 0 175 -37 0 c-29 0 -50 -10 -90 -42z"/>
<path d="M3491 834 c-48 -40 -65 -140 -40 -240 20 -79 98 -117 172 -83 81 37
91 260 15 324 -41 35 -105 35 -147 -1z m100 -60 c22 -26 19 -169 -4 -191 -39
-39 -73 28 -64 125 8 76 37 104 68 66z"/>
<path d="M4050 847 c-42 -21 -60 -71 -60 -167 0 -131 34 -180 125 -180 82 0
115 52 115 181 0 94 -18 142 -61 164 -34 18 -85 19 -119 2z m90 -83 c6 -14 10
-52 10 -84 0 -73 -13 -110 -39 -110 -29 0 -41 30 -41 104 0 80 12 116 40 116
13 0 24 -10 30 -26z"/>
<path d="M3775 808 c-51 -42 -55 -51 -28 -80 15 -17 17 -16 44 3 l29 20 0
-125 0 -126 40 0 40 0 0 175 0 175 -37 0 c-29 -1 -50 -10 -88 -42z"/>
<path d="M2296 741 c-44 -48 -44 -174 0 -218 28 -28 82 -31 114 -5 42 34 45
178 5 222 -24 27 -95 28 -119 1z m78 -47 c10 -27 6 -120 -6 -132 -22 -22 -38
7 -38 73 0 34 3 65 7 68 11 12 31 7 37 -9z"/>
<path d="M2507 727 c-28 -23 -36 -37 -32 -49 8 -21 35 -24 53 -6 9 9 12 -8 12
-80 l0 -92 30 0 30 0 0 130 0 130 -27 0 c-17 0 -44 -13 -66 -33z"/>
<path d="M2997 454 c-29 -9 -47 -58 -47 -132 0 -79 20 -116 67 -125 36 -7 89
16 96 40 22 77 17 158 -12 194 -16 20 -71 32 -104 23z m63 -94 c7 -52 0 -101
-17 -107 -8 -3 -19 0 -24 8 -10 17 -12 123 -2 133 16 16 38 -1 43 -34z"/>
<path d="M3188 422 c-41 -30 -46 -43 -23 -62 12 -10 19 -10 27 -2 23 23 28 11
28 -73 l0 -85 30 0 30 0 0 125 0 125 -27 0 c-16 -1 -45 -13 -65 -28z"/>
</g>
</svg>
